. 
  
http://www.torrentday.com/        :     The Hottest Private Tracker On The Net!!!
 
http://www.torrentday.com          :     Once & For all ;)


               www . TorrentDay . Com 

(((((((((((((= Enjoy No RAR releases =))))))))))))))))))))


...................................NFO:....................................

.                                                                                                     
       
     
     
       
       
     
     
                                         
                                         
                EXVID                    
                                         
         
                                         
         Filled the Archives             
                                         
         
                                         
                With:                    
                                         
         
                                         
                                    
     E240                           
                                    
     SP               (C) 2009      
                                         
     
     
     
                                                                                  
                                                                                   
                IMAX.Magnificent.Desolation.2005.iNTERNAL.DVDRip.XviD-EXViDiNT      
                                                                                   
                                                                                  
     
                                                                                               
EXViD aims to iNTERNAL those releases which have been lost in the archives.
EXViD aims to PRE non-internal releases which have poor sources and are likely skipped by others.
 
http://www.imdb.com/title/tt0401623/
Subtitles: English French Spanish
Date: 2011.02

Director: Mark Cowen
Genre: Docu
Plot: Only 12 Have Walked On The moon. This Fall, You're Next!

Cast
Cast overview, first billed only:
Tom Hanks 	Tom Hanks 	... 	
Narrator (voice)
John Corbett 	John Corbett 	... 	
Jack Schmitt (voice)
Andrew Husmann 	Andrew Husmann 	... 	
Astronaut Scott
Bryan Cranston 	Bryan Cranston 	... 	
Buzz Aldrin (voice)
Aaron White 	Aaron White 	... 	
Astronaut Irwin
Matt Damon 	Matt Damon 	... 	
Al Shepard (voice)
Gary Hershberger 	Gary Hershberger 	... 	
Astronaut Grace
Morgan Freeman 	Morgan Freeman 	... 	
Neil Armstrong (voice)
Scott Wilder 	Scott Wilder 	... 	
Astronaut Wallace
Brandy Blackledge 	Brandy Blackledge 	... 	
Future Astronaut
Scott Glenn 	Scott Glenn 	... 	
Charles Duke (voice)
Rick Gomez 	Rick Gomez 	... 	
Alpha Station Commander (voice)
Colin Hanks 	Colin Hanks 	... 	
Conspiracy Neil Armstrong
Bo Stevenson 	Bo Stevenson 	... 	
Conspiracy Grip
Frank John Hughes 	Frank John Hughes 	... 	
Future Houston Capcom (voice)
Full cast and crew  

Stats:
General
Format                           : AVI
Format/Info                      : Audio Video Interleave
File size                        : 349 MiB
Duration                         : 40mn 0s
Overall bit rate                 : 1 220 Kbps
Writing application              : VirtualDubMod 1.5.10.2 (build 2542/release)
Writing library                  : VirtualDubMod build 2542/release

Video
ID                               : 0
Format                           : MPEG-4 Visual
Format profile                   : Advanced Simple@L5
Format settings, BVOP            : Yes
Format settings, QPel            : No
Format settings, GMC             : No warppoints
Format settings, Matrix          : Default (H.263)
Codec ID                         : XVID
Codec ID/Hint                    : XviD
Duration                         : 40mn 0s
Bit rate                         : 1 083 Kbps
Width                            : 640 pixels
Height                           : 352 pixels
Display aspect ratio             : 16:9
Frame rate                       : 23.976 fps
Resolution                       : 8 bits
Colorimetry                      : 4:2:0
Scan type                        : Progressive
Bits/(Pixel*Frame)               : 0.201
Stream size                      : 310 MiB (89%)
Writing library                  : XviD 1.2.1 (UTC 2008-12-04)

Audio
ID                               : 1
Format                           : MPEG Audio
Format version                   : Version 1
Format profile                   : Layer 3
Mode                             : Joint stereo
Codec ID                         : 55
Codec ID/Hint                    : MP3
Duration                         : 40mn 0s
Bit rate mode                    : Variable
Bit rate                         : 128 Kbps
Channel(s)                       : 2 channels
Sampling rate                    : 48.0 KHz
Stream size                      : 35.6 MiB (10%)
Alignment                        : Aligned on interleaves
Interleave, duration             : 24 ms (0.58 video frame)
Interleave, preload duration     : 466 ms
Writing library                  : LAME3.90.
Encoding settings                : -m j -V 4 -q 2 -lowpass 17.6 --abr 128




Release notes:
enjoy!

Looking for:
75TB+ Archives
                                                                                                    
Greets: CRBS EPiSODE FiCO FLS iLS KLASSiGER LiPSYNC MADE NODLABS RUNNER SPRiNTER
   

                                                                    ASCII DONE BY XX^NFO 2oo9